<mxfile host="app.diagrams.net" modified="2024-03-11T10:08:38.257Z" agent="Mozilla/5.0 (Windows NT 10.0; Win64; x64) AppleWebKit/537.36 (KHTML, like Gecko) Chrome/122.0.0.0 Safari/537.36 Edg/122.0.0.0" etag="3betGoKS7ShXyNdNLWsU" version="24.0.4" type="device">
  <diagram name="第 1 页" id="QB72SZdV8wnKL1cU7O5G">
    <mxGraphModel dx="954" dy="715" grid="1" gridSize="10" guides="1" tooltips="1" connect="1" arrows="1" fold="1" page="1" pageScale="1" pageWidth="827" pageHeight="1169" math="0" shadow="0">
      <root>
        <mxCell id="0" />
        <mxCell id="1" parent="0" />
        <mxCell id="ZNn1JkBEAF4gP1HVH14e-1" value="master" style="text;html=1;align=center;verticalAlign=middle;resizable=0;points=[];autosize=1;strokeColor=none;fillColor=none;" parent="1" vertex="1">
          <mxGeometry x="180" y="350" width="60" height="30" as="geometry" />
        </mxCell>
        <mxCell id="ZNn1JkBEAF4gP1HVH14e-2" value="release" style="text;html=1;align=center;verticalAlign=middle;resizable=0;points=[];autosize=1;strokeColor=none;fillColor=none;" parent="1" vertex="1">
          <mxGeometry x="180" y="418" width="60" height="30" as="geometry" />
        </mxCell>
        <mxCell id="ZNn1JkBEAF4gP1HVH14e-3" value="dev" style="text;html=1;align=center;verticalAlign=middle;resizable=0;points=[];autosize=1;strokeColor=none;fillColor=none;" parent="1" vertex="1">
          <mxGeometry x="190" y="480" width="40" height="30" as="geometry" />
        </mxCell>
        <mxCell id="ZNn1JkBEAF4gP1HVH14e-4" value="staff_f1" style="text;html=1;align=center;verticalAlign=middle;resizable=0;points=[];autosize=1;strokeColor=none;fillColor=none;" parent="1" vertex="1">
          <mxGeometry x="180" y="540" width="60" height="30" as="geometry" />
        </mxCell>
        <mxCell id="ZNn1JkBEAF4gP1HVH14e-5" value="staff_f2" style="text;html=1;align=center;verticalAlign=middle;resizable=0;points=[];autosize=1;strokeColor=none;fillColor=none;" parent="1" vertex="1">
          <mxGeometry x="180" y="610" width="60" height="30" as="geometry" />
        </mxCell>
        <mxCell id="ZNn1JkBEAF4gP1HVH14e-6" value="v1" style="ellipse;whiteSpace=wrap;html=1;" parent="1" vertex="1">
          <mxGeometry x="250" y="350" width="50" height="30" as="geometry" />
        </mxCell>
        <mxCell id="ZNn1JkBEAF4gP1HVH14e-12" style="rounded=0;orthogonalLoop=1;jettySize=auto;html=1;exitX=0.5;exitY=0;exitDx=0;exitDy=0;" parent="1" source="ZNn1JkBEAF4gP1HVH14e-11" target="ZNn1JkBEAF4gP1HVH14e-6" edge="1">
          <mxGeometry relative="1" as="geometry" />
        </mxCell>
        <mxCell id="ZNn1JkBEAF4gP1HVH14e-11" value="" style="ellipse;whiteSpace=wrap;html=1;" parent="1" vertex="1">
          <mxGeometry x="280" y="480" width="30" height="30" as="geometry" />
        </mxCell>
        <mxCell id="ZNn1JkBEAF4gP1HVH14e-13" value="" style="ellipse;whiteSpace=wrap;html=1;" parent="1" vertex="1">
          <mxGeometry x="310" y="540" width="30" height="30" as="geometry" />
        </mxCell>
        <mxCell id="ZNn1JkBEAF4gP1HVH14e-16" style="rounded=0;orthogonalLoop=1;jettySize=auto;html=1;exitX=0;exitY=0;exitDx=0;exitDy=0;entryX=0.5;entryY=1;entryDx=0;entryDy=0;" parent="1" source="ZNn1JkBEAF4gP1HVH14e-14" target="ZNn1JkBEAF4gP1HVH14e-11" edge="1">
          <mxGeometry relative="1" as="geometry" />
        </mxCell>
        <mxCell id="ZNn1JkBEAF4gP1HVH14e-14" value="" style="ellipse;whiteSpace=wrap;html=1;" parent="1" vertex="1">
          <mxGeometry x="300" y="610" width="30" height="30" as="geometry" />
        </mxCell>
        <mxCell id="ZNn1JkBEAF4gP1HVH14e-15" style="rounded=0;orthogonalLoop=1;jettySize=auto;html=1;exitX=0;exitY=0;exitDx=0;exitDy=0;entryX=1;entryY=1;entryDx=0;entryDy=0;" parent="1" source="ZNn1JkBEAF4gP1HVH14e-13" target="ZNn1JkBEAF4gP1HVH14e-11" edge="1">
          <mxGeometry relative="1" as="geometry" />
        </mxCell>
        <mxCell id="ZNn1JkBEAF4gP1HVH14e-27" value="" style="edgeStyle=orthogonalEdgeStyle;rounded=0;orthogonalLoop=1;jettySize=auto;html=1;" parent="1" source="ZNn1JkBEAF4gP1HVH14e-17" target="ZNn1JkBEAF4gP1HVH14e-13" edge="1">
          <mxGeometry relative="1" as="geometry" />
        </mxCell>
        <mxCell id="ZNn1JkBEAF4gP1HVH14e-17" value="" style="ellipse;whiteSpace=wrap;html=1;" parent="1" vertex="1">
          <mxGeometry x="380" y="540" width="30" height="30" as="geometry" />
        </mxCell>
        <mxCell id="ZNn1JkBEAF4gP1HVH14e-28" value="" style="edgeStyle=orthogonalEdgeStyle;rounded=0;orthogonalLoop=1;jettySize=auto;html=1;" parent="1" source="ZNn1JkBEAF4gP1HVH14e-18" target="ZNn1JkBEAF4gP1HVH14e-17" edge="1">
          <mxGeometry relative="1" as="geometry" />
        </mxCell>
        <mxCell id="ZNn1JkBEAF4gP1HVH14e-18" value="" style="ellipse;whiteSpace=wrap;html=1;" parent="1" vertex="1">
          <mxGeometry x="450" y="540" width="30" height="30" as="geometry" />
        </mxCell>
        <mxCell id="ZNn1JkBEAF4gP1HVH14e-24" value="" style="edgeStyle=orthogonalEdgeStyle;rounded=0;orthogonalLoop=1;jettySize=auto;html=1;" parent="1" source="ZNn1JkBEAF4gP1HVH14e-19" target="ZNn1JkBEAF4gP1HVH14e-14" edge="1">
          <mxGeometry relative="1" as="geometry" />
        </mxCell>
        <mxCell id="ZNn1JkBEAF4gP1HVH14e-19" value="" style="ellipse;whiteSpace=wrap;html=1;" parent="1" vertex="1">
          <mxGeometry x="370" y="610" width="30" height="30" as="geometry" />
        </mxCell>
        <mxCell id="ZNn1JkBEAF4gP1HVH14e-25" value="" style="edgeStyle=orthogonalEdgeStyle;rounded=0;orthogonalLoop=1;jettySize=auto;html=1;" parent="1" source="ZNn1JkBEAF4gP1HVH14e-20" target="ZNn1JkBEAF4gP1HVH14e-19" edge="1">
          <mxGeometry relative="1" as="geometry" />
        </mxCell>
        <mxCell id="ZNn1JkBEAF4gP1HVH14e-20" value="" style="ellipse;whiteSpace=wrap;html=1;" parent="1" vertex="1">
          <mxGeometry x="440" y="610" width="30" height="30" as="geometry" />
        </mxCell>
        <mxCell id="ZNn1JkBEAF4gP1HVH14e-26" value="" style="edgeStyle=orthogonalEdgeStyle;rounded=0;orthogonalLoop=1;jettySize=auto;html=1;" parent="1" source="ZNn1JkBEAF4gP1HVH14e-21" target="ZNn1JkBEAF4gP1HVH14e-20" edge="1">
          <mxGeometry relative="1" as="geometry" />
        </mxCell>
        <mxCell id="ZNn1JkBEAF4gP1HVH14e-21" value="" style="ellipse;whiteSpace=wrap;html=1;" parent="1" vertex="1">
          <mxGeometry x="500" y="610" width="30" height="30" as="geometry" />
        </mxCell>
        <mxCell id="ZNn1JkBEAF4gP1HVH14e-30" style="rounded=0;orthogonalLoop=1;jettySize=auto;html=1;exitX=0;exitY=1;exitDx=0;exitDy=0;entryX=1;entryY=0;entryDx=0;entryDy=0;" parent="1" source="ZNn1JkBEAF4gP1HVH14e-29" target="ZNn1JkBEAF4gP1HVH14e-18" edge="1">
          <mxGeometry relative="1" as="geometry" />
        </mxCell>
        <mxCell id="lT3R3b1YYJkWuDHnjJL1-2" style="edgeStyle=orthogonalEdgeStyle;rounded=0;orthogonalLoop=1;jettySize=auto;html=1;exitX=0;exitY=0.5;exitDx=0;exitDy=0;entryX=1;entryY=0.5;entryDx=0;entryDy=0;" parent="1" source="ZNn1JkBEAF4gP1HVH14e-29" target="ZNn1JkBEAF4gP1HVH14e-11" edge="1">
          <mxGeometry relative="1" as="geometry" />
        </mxCell>
        <mxCell id="ZNn1JkBEAF4gP1HVH14e-29" value="" style="ellipse;whiteSpace=wrap;html=1;" parent="1" vertex="1">
          <mxGeometry x="490" y="480" width="30" height="30" as="geometry" />
        </mxCell>
        <mxCell id="ZNn1JkBEAF4gP1HVH14e-31" value="review" style="text;html=1;align=center;verticalAlign=middle;resizable=0;points=[];autosize=1;strokeColor=none;fillColor=none;" parent="1" vertex="1">
          <mxGeometry x="475" y="510" width="60" height="30" as="geometry" />
        </mxCell>
        <mxCell id="ZNn1JkBEAF4gP1HVH14e-32" value="" style="endArrow=none;dashed=1;html=1;rounded=0;" parent="1" edge="1">
          <mxGeometry width="50" height="50" relative="1" as="geometry">
            <mxPoint x="160" y="458" as="sourcePoint" />
            <mxPoint x="920" y="460" as="targetPoint" />
          </mxGeometry>
        </mxCell>
        <mxCell id="ZNn1JkBEAF4gP1HVH14e-36" value="" style="rounded=0;orthogonalLoop=1;jettySize=auto;html=1;entryX=0.5;entryY=0;entryDx=0;entryDy=0;" parent="1" source="ZNn1JkBEAF4gP1HVH14e-34" target="ZNn1JkBEAF4gP1HVH14e-29" edge="1">
          <mxGeometry relative="1" as="geometry">
            <mxPoint x="505" y="490" as="targetPoint" />
          </mxGeometry>
        </mxCell>
        <mxCell id="ZNn1JkBEAF4gP1HVH14e-34" value="" style="ellipse;whiteSpace=wrap;html=1;" parent="1" vertex="1">
          <mxGeometry x="510" y="418" width="30" height="30" as="geometry" />
        </mxCell>
        <mxCell id="ZNn1JkBEAF4gP1HVH14e-38" value="" style="edgeStyle=orthogonalEdgeStyle;rounded=0;orthogonalLoop=1;jettySize=auto;html=1;" parent="1" source="ZNn1JkBEAF4gP1HVH14e-37" target="ZNn1JkBEAF4gP1HVH14e-34" edge="1">
          <mxGeometry relative="1" as="geometry" />
        </mxCell>
        <mxCell id="ZNn1JkBEAF4gP1HVH14e-37" value="" style="ellipse;whiteSpace=wrap;html=1;" parent="1" vertex="1">
          <mxGeometry x="570" y="418" width="30" height="30" as="geometry" />
        </mxCell>
        <mxCell id="ZNn1JkBEAF4gP1HVH14e-39" value="debug" style="text;html=1;align=center;verticalAlign=middle;resizable=0;points=[];autosize=1;strokeColor=none;fillColor=none;" parent="1" vertex="1">
          <mxGeometry x="520" y="398" width="60" height="30" as="geometry" />
        </mxCell>
        <mxCell id="ZNn1JkBEAF4gP1HVH14e-41" style="rounded=0;orthogonalLoop=1;jettySize=auto;html=1;exitX=0;exitY=0;exitDx=0;exitDy=0;entryX=1;entryY=1;entryDx=0;entryDy=0;" parent="1" source="ZNn1JkBEAF4gP1HVH14e-40" target="ZNn1JkBEAF4gP1HVH14e-37" edge="1">
          <mxGeometry relative="1" as="geometry">
            <mxPoint x="604.1428571428571" y="470" as="targetPoint" />
          </mxGeometry>
        </mxCell>
        <mxCell id="lT3R3b1YYJkWuDHnjJL1-3" style="edgeStyle=orthogonalEdgeStyle;rounded=0;orthogonalLoop=1;jettySize=auto;html=1;exitX=0;exitY=0.5;exitDx=0;exitDy=0;entryX=1;entryY=0.5;entryDx=0;entryDy=0;" parent="1" source="ZNn1JkBEAF4gP1HVH14e-40" target="ZNn1JkBEAF4gP1HVH14e-29" edge="1">
          <mxGeometry relative="1" as="geometry" />
        </mxCell>
        <mxCell id="ZNn1JkBEAF4gP1HVH14e-40" value="" style="ellipse;whiteSpace=wrap;html=1;" parent="1" vertex="1">
          <mxGeometry x="600" y="480" width="30" height="30" as="geometry" />
        </mxCell>
        <mxCell id="lT3R3b1YYJkWuDHnjJL1-1" value="" style="edgeStyle=orthogonalEdgeStyle;rounded=0;orthogonalLoop=1;jettySize=auto;html=1;" parent="1" source="ZNn1JkBEAF4gP1HVH14e-43" edge="1">
          <mxGeometry relative="1" as="geometry">
            <mxPoint x="510" y="365" as="targetPoint" />
          </mxGeometry>
        </mxCell>
        <mxCell id="ZNn1JkBEAF4gP1HVH14e-43" value="v2" style="ellipse;whiteSpace=wrap;html=1;" parent="1" vertex="1">
          <mxGeometry x="590" y="350" width="50" height="30" as="geometry" />
        </mxCell>
        <mxCell id="ZNn1JkBEAF4gP1HVH14e-44" style="rounded=0;orthogonalLoop=1;jettySize=auto;html=1;exitX=0;exitY=1;exitDx=0;exitDy=0;" parent="1" source="ZNn1JkBEAF4gP1HVH14e-43" edge="1">
          <mxGeometry relative="1" as="geometry">
            <mxPoint x="590" y="420" as="targetPoint" />
          </mxGeometry>
        </mxCell>
        <mxCell id="ZNn1JkBEAF4gP1HVH14e-45" value="" style="endArrow=none;dashed=1;html=1;rounded=0;" parent="1" edge="1">
          <mxGeometry width="50" height="50" relative="1" as="geometry">
            <mxPoint x="160" y="400" as="sourcePoint" />
            <mxPoint x="920" y="400" as="targetPoint" />
          </mxGeometry>
        </mxCell>
        <mxCell id="lT3R3b1YYJkWuDHnjJL1-6" value="" style="edgeStyle=orthogonalEdgeStyle;rounded=0;orthogonalLoop=1;jettySize=auto;html=1;" parent="1" source="lT3R3b1YYJkWuDHnjJL1-5" target="ZNn1JkBEAF4gP1HVH14e-40" edge="1">
          <mxGeometry relative="1" as="geometry" />
        </mxCell>
        <mxCell id="lT3R3b1YYJkWuDHnjJL1-7" style="rounded=0;orthogonalLoop=1;jettySize=auto;html=1;exitX=0;exitY=1;exitDx=0;exitDy=0;entryX=1;entryY=0.5;entryDx=0;entryDy=0;" parent="1" source="lT3R3b1YYJkWuDHnjJL1-5" target="ZNn1JkBEAF4gP1HVH14e-21" edge="1">
          <mxGeometry relative="1" as="geometry" />
        </mxCell>
        <mxCell id="lT3R3b1YYJkWuDHnjJL1-5" value="" style="ellipse;whiteSpace=wrap;html=1;" parent="1" vertex="1">
          <mxGeometry x="670" y="480" width="30" height="30" as="geometry" />
        </mxCell>
        <mxCell id="lT3R3b1YYJkWuDHnjJL1-8" value="" style="rounded=0;orthogonalLoop=1;jettySize=auto;html=1;entryX=0.5;entryY=0;entryDx=0;entryDy=0;" parent="1" source="lT3R3b1YYJkWuDHnjJL1-9" edge="1">
          <mxGeometry relative="1" as="geometry">
            <mxPoint x="690" y="480" as="targetPoint" />
          </mxGeometry>
        </mxCell>
        <mxCell id="lT3R3b1YYJkWuDHnjJL1-9" value="" style="ellipse;whiteSpace=wrap;html=1;" parent="1" vertex="1">
          <mxGeometry x="695" y="418" width="30" height="30" as="geometry" />
        </mxCell>
        <mxCell id="lT3R3b1YYJkWuDHnjJL1-10" value="" style="edgeStyle=orthogonalEdgeStyle;rounded=0;orthogonalLoop=1;jettySize=auto;html=1;" parent="1" source="lT3R3b1YYJkWuDHnjJL1-11" target="lT3R3b1YYJkWuDHnjJL1-9" edge="1">
          <mxGeometry relative="1" as="geometry" />
        </mxCell>
        <mxCell id="lT3R3b1YYJkWuDHnjJL1-11" value="" style="ellipse;whiteSpace=wrap;html=1;" parent="1" vertex="1">
          <mxGeometry x="755" y="418" width="30" height="30" as="geometry" />
        </mxCell>
        <mxCell id="lT3R3b1YYJkWuDHnjJL1-12" style="rounded=0;orthogonalLoop=1;jettySize=auto;html=1;exitX=0;exitY=0;exitDx=0;exitDy=0;entryX=1;entryY=1;entryDx=0;entryDy=0;" parent="1" target="lT3R3b1YYJkWuDHnjJL1-11" edge="1">
          <mxGeometry relative="1" as="geometry">
            <mxPoint x="789.1428571428571" y="470" as="targetPoint" />
            <mxPoint x="789" y="484" as="sourcePoint" />
          </mxGeometry>
        </mxCell>
        <mxCell id="lT3R3b1YYJkWuDHnjJL1-13" value="debug" style="text;html=1;align=center;verticalAlign=middle;resizable=0;points=[];autosize=1;strokeColor=none;fillColor=none;" parent="1" vertex="1">
          <mxGeometry x="705" y="398" width="60" height="30" as="geometry" />
        </mxCell>
        <mxCell id="lT3R3b1YYJkWuDHnjJL1-17" value="" style="edgeStyle=orthogonalEdgeStyle;rounded=0;orthogonalLoop=1;jettySize=auto;html=1;" parent="1" source="lT3R3b1YYJkWuDHnjJL1-16" target="lT3R3b1YYJkWuDHnjJL1-5" edge="1">
          <mxGeometry relative="1" as="geometry" />
        </mxCell>
        <mxCell id="lT3R3b1YYJkWuDHnjJL1-16" value="" style="ellipse;whiteSpace=wrap;html=1;" parent="1" vertex="1">
          <mxGeometry x="780" y="480" width="30" height="30" as="geometry" />
        </mxCell>
        <mxCell id="lT3R3b1YYJkWuDHnjJL1-21" style="edgeStyle=orthogonalEdgeStyle;rounded=0;orthogonalLoop=1;jettySize=auto;html=1;exitX=0;exitY=0.5;exitDx=0;exitDy=0;entryX=1;entryY=0.5;entryDx=0;entryDy=0;" parent="1" source="lT3R3b1YYJkWuDHnjJL1-18" target="ZNn1JkBEAF4gP1HVH14e-43" edge="1">
          <mxGeometry relative="1" as="geometry" />
        </mxCell>
        <mxCell id="lT3R3b1YYJkWuDHnjJL1-18" value="v3" style="ellipse;whiteSpace=wrap;html=1;" parent="1" vertex="1">
          <mxGeometry x="780" y="350" width="50" height="30" as="geometry" />
        </mxCell>
        <mxCell id="lT3R3b1YYJkWuDHnjJL1-19" style="rounded=0;orthogonalLoop=1;jettySize=auto;html=1;exitX=0;exitY=1;exitDx=0;exitDy=0;" parent="1" edge="1">
          <mxGeometry relative="1" as="geometry">
            <mxPoint x="780" y="420" as="targetPoint" />
            <mxPoint x="787" y="376" as="sourcePoint" />
          </mxGeometry>
        </mxCell>
        <mxCell id="lT3R3b1YYJkWuDHnjJL1-22" value="review" style="text;html=1;align=center;verticalAlign=middle;resizable=0;points=[];autosize=1;strokeColor=none;fillColor=none;" parent="1" vertex="1">
          <mxGeometry x="610" y="550" width="60" height="30" as="geometry" />
        </mxCell>
        <mxCell id="pz-6JpRiSX42dGMk0lbQ-1" value="" style="endArrow=none;dashed=1;html=1;rounded=0;" edge="1" parent="1">
          <mxGeometry width="50" height="50" relative="1" as="geometry">
            <mxPoint x="160" y="330" as="sourcePoint" />
            <mxPoint x="920" y="330" as="targetPoint" />
          </mxGeometry>
        </mxCell>
        <mxCell id="pz-6JpRiSX42dGMk0lbQ-2" value="" style="endArrow=none;dashed=1;html=1;rounded=0;" edge="1" parent="1">
          <mxGeometry width="50" height="50" relative="1" as="geometry">
            <mxPoint x="160" y="260" as="sourcePoint" />
            <mxPoint x="920" y="260" as="targetPoint" />
          </mxGeometry>
        </mxCell>
        <mxCell id="pz-6JpRiSX42dGMk0lbQ-7" style="rounded=0;orthogonalLoop=1;jettySize=auto;html=1;exitX=0;exitY=1;exitDx=0;exitDy=0;entryX=1;entryY=0;entryDx=0;entryDy=0;" edge="1" parent="1" source="pz-6JpRiSX42dGMk0lbQ-5" target="ZNn1JkBEAF4gP1HVH14e-6">
          <mxGeometry relative="1" as="geometry" />
        </mxCell>
        <mxCell id="pz-6JpRiSX42dGMk0lbQ-5" value="" style="ellipse;whiteSpace=wrap;html=1;" vertex="1" parent="1">
          <mxGeometry x="340" y="280" width="30" height="30" as="geometry" />
        </mxCell>
        <mxCell id="pz-6JpRiSX42dGMk0lbQ-6" value="bug" style="text;html=1;align=center;verticalAlign=middle;resizable=0;points=[];autosize=1;strokeColor=none;fillColor=none;" vertex="1" parent="1">
          <mxGeometry x="190" y="280" width="40" height="30" as="geometry" />
        </mxCell>
        <mxCell id="pz-6JpRiSX42dGMk0lbQ-11" style="edgeStyle=orthogonalEdgeStyle;rounded=0;orthogonalLoop=1;jettySize=auto;html=1;exitX=0;exitY=0.5;exitDx=0;exitDy=0;entryX=1;entryY=0.5;entryDx=0;entryDy=0;" edge="1" parent="1" source="pz-6JpRiSX42dGMk0lbQ-8" target="ZNn1JkBEAF4gP1HVH14e-6">
          <mxGeometry relative="1" as="geometry" />
        </mxCell>
        <mxCell id="pz-6JpRiSX42dGMk0lbQ-12" style="rounded=0;orthogonalLoop=1;jettySize=auto;html=1;exitX=0;exitY=0;exitDx=0;exitDy=0;entryX=1;entryY=1;entryDx=0;entryDy=0;" edge="1" parent="1" source="pz-6JpRiSX42dGMk0lbQ-8" target="pz-6JpRiSX42dGMk0lbQ-10">
          <mxGeometry relative="1" as="geometry" />
        </mxCell>
        <mxCell id="pz-6JpRiSX42dGMk0lbQ-8" value="" style="ellipse;whiteSpace=wrap;html=1;" vertex="1" parent="1">
          <mxGeometry x="480" y="350" width="30" height="30" as="geometry" />
        </mxCell>
        <mxCell id="pz-6JpRiSX42dGMk0lbQ-13" style="edgeStyle=orthogonalEdgeStyle;rounded=0;orthogonalLoop=1;jettySize=auto;html=1;exitX=0;exitY=0.5;exitDx=0;exitDy=0;entryX=1;entryY=0.5;entryDx=0;entryDy=0;" edge="1" parent="1" source="pz-6JpRiSX42dGMk0lbQ-10" target="pz-6JpRiSX42dGMk0lbQ-5">
          <mxGeometry relative="1" as="geometry" />
        </mxCell>
        <mxCell id="pz-6JpRiSX42dGMk0lbQ-10" value="" style="ellipse;whiteSpace=wrap;html=1;" vertex="1" parent="1">
          <mxGeometry x="430" y="280" width="30" height="30" as="geometry" />
        </mxCell>
      </root>
    </mxGraphModel>
  </diagram>
</mxfile>
